<svg id="圖層_1" data-name="圖層 1" xmlns="http://www.w3.org/2000/svg" viewBox="0 0 369 145.77"><defs><style>.cls-1{fill:#fe4a49;}.cls-2{fill:#fff;}</style></defs><title>SBlogo</title><path class="cls-1" d="M321.15,2.23c-23.74,0-44.7,12.37-57.33,31.26C251.2,14.6,230.24,2.23,206.5,2.23S161.8,14.6,149.18,33.49C136.55,14.6,115.59,2.23,91.85,2.23,53.27,2.23,22,34.86,22,75.12S53.27,148,91.85,148c23.74,0,44.7-12.37,57.33-31.25C161.8,135.63,182.76,148,206.5,148s44.7-12.37,57.32-31.25C276.45,135.63,297.41,148,321.15,148,359.73,148,391,115.37,391,75.12S359.73,2.23,321.15,2.23Z" transform="translate(-22 -2.23)"/><path class="cls-2" d="M115.89,45.92l-.39.65,2.3.72.48-.5q.85-1.23,7.55-11.8a95.49,95.49,0,0,1,6.69-9.5l.86-1.07-2.49-.94-.47.58-6.5,9.49Q118.66,41.19,115.89,45.92Z" transform="translate(-22 -2.23)"/><path class="cls-2" d="M55.86,109.81,67,111.89a133.85,133.85,0,0,0,24.38,2.52q17.39,0,29.2-8t11.8-19.82q0-21.15-34.5-27.41L81.76,56.21Q57.58,51.83,57.58,39.74q0-6.48,6.78-10.76t17-4.28a34.79,34.79,0,0,1,19.79,5.83,18.93,18.93,0,0,1,5.16,4.82,55.48,55.48,0,0,1,4.39,9c.13.29.32.7.58,1.23l.48-.44q1.91-2.45,7.74-13.23a46.62,46.62,0,0,1,7.93-10.51l-1-.36a25.43,25.43,0,0,1-10.23,2.45A56.9,56.9,0,0,1,105.85,22a134,134,0,0,0-26.1-3q-17.4,0-28.24,7.09T40.66,44.56q0,11,8.12,17.19T75,70.6q23.43,3.45,31,7.48,10.52,5.69,10.52,14.39,0,7.55-7.55,12t-20.36,4.46q-16.26,0-26.29-6.26a25.1,25.1,0,0,1-12-17.55l-1.72-.36q-4.78,12.17-16.64,25.61l.77,1a29.2,29.2,0,0,1,12-2.81A65.27,65.27,0,0,1,55.86,109.81Z" transform="translate(-22 -2.23)"/><path class="cls-2" d="M70.86,33.48a21.39,21.39,0,0,1,12-3.17q12,0,22.56,8.42l.67-.29a18.73,18.73,0,0,0-9-7.37,36.47,36.47,0,0,0-14.38-2.63q-8.61,0-14,3.53T63.41,41.1q0,8.07,12.62,12.31l.47-.58-.76-.36q-9.66-5.61-9.66-10.93Q66.08,36.65,70.86,33.48Z" transform="translate(-22 -2.23)"/><path class="cls-2" d="M56.81,88.37Q60.54,103,78.32,106.93v-.58Q62.93,101,59.39,88Z" transform="translate(-22 -2.23)"/><path class="cls-2" d="M102.84,82.33a28.16,28.16,0,0,1,9.32,5.46l.67-.28a13.7,13.7,0,0,0-7.41-6.44Q100.2,78.94,84.53,76L69.14,73.12Q53.86,70.32,50.7,66.07L47.45,64.7q1.34,4.53,8.41,7.16t27.72,6.22Q97.82,80.6,102.84,82.33Z" transform="translate(-22 -2.23)"/><path class="cls-2" d="M127.45,67.29v.43Q137.77,76,137.78,87q0,13-13.43,22.2T91.8,118.37a104.26,104.26,0,0,1-18.55-1.59l-14.72-2.66a76.71,76.71,0,0,0-13.09-1.29,30.67,30.67,0,0,0-10.13,1.72l1.14,2.09a29.49,29.49,0,0,1,10-1.65A62.16,62.16,0,0,1,58,116l15.29,2.81a100.65,100.65,0,0,0,18.64,1.58q20.27,0,34.41-9.53t14.15-23.27Q140.45,74.69,127.45,67.29Z" transform="translate(-22 -2.23)"/><path class="cls-2" d="M272.84,112.9h99.79q-9.47-7.2-18.45-26.83-2.67,11.66-10.46,16.72t-23,5.07q-3.92,0-8.22-.28V32l9.27-7.12-1.34-1.58-10.32,7.84v76.4h-.86l-3.44-.22h-.77V30.46l13.48-9.86H272.84L286,29.74v75Z" transform="translate(-22 -2.23)"/><path class="cls-2" d="M381.24,111.6A104.36,104.36,0,0,1,365.94,92l-.67-1.23-3.06-.86.39.79a80.54,80.54,0,0,0,16.82,21.65l-2.77,4.54H275.52l2.39,1.94H377.7l4.3-6.48Z" transform="translate(-22 -2.23)"/><path class="cls-2" d="M250.28,72.69l-1.15.64q8.81,7.64,8.8,17,0,16.77-19.31,23.52-8.7,3-28.39,3H149.91l1.63,1.94h65q21.51,0,32.59-7.77,11.39-8,11.38-20.22T250.28,72.69Z" transform="translate(-22 -2.23)"/><path class="cls-2" d="M146.38,112.9h68.44q17.2,0,27.53-6.44T252.67,89.3a20,20,0,0,0-5.21-13.45q-5.21-6-14.58-9.21,21.62-6.18,21.61-21.87,0-11.35-12.52-18.63l-1.06-.65v.44q11.19,7.91,11.19,18.12A18.48,18.48,0,0,1,246,57.94Q240,63.7,229.35,65.56q-3.25-.72-5.55-1.15v-.79q22.56-5,22.56-19.64,0-11-13-17.95t-33.55-6.94q-28.29,0-51,11.3l10.8,4.31V61.75a37.14,37.14,0,0,0-4.49-.21c-1.28,0-3.16-.08-5.64-.22l-1.53-.07-4.21,6.9q8.13-.57,13.48-.57h2.39v3.81q-5.44,0-14,.65l.77,2.09a117.08,117.08,0,0,1,13.19-.87v31.15Zm32.31-83.59a49.68,49.68,0,0,1,20.64-4.54q12,0,19.46,5.08t7.4,13.34q0,9.42-8.93,14t-27.2,4.57h-4V34.13A28,28,0,0,1,199.43,31q13.29,0,20.45,8.13l2.68,1.15a21,21,0,0,0-8.84-8.34q-5.21-2.45-14.2-2.45a48.38,48.38,0,0,0-16.05,2.88V61.75h-1.63l-1.72-.07c-.26,0-.73,0-1.43.07Zm0,38.34c4.46-.19,7.48-.29,9.08-.29q24.38,0,33.26,4.21t8.89,15.65q0,18.27-26.95,19.71l-13.86.36h-3.06V73.69l7.83-.14q13.68,0,20.75,1.91a24.56,24.56,0,0,1,11.75,6.87h1.15a20.69,20.69,0,0,0-11.33-8.49q-7.11-2.24-23-2.23-3,0-9.75.36v35.32h-4.78Z" transform="translate(-22 -2.23)"/></svg>