<?xml version="1.0" encoding="utf-8"?>
<!-- Generator: Adobe Illustrator 23.1.0, SVG Export Plug-In . SVG Version: 6.00 Build 0)  -->
<svg version="1.1" id="圖層_1" xmlns="http://www.w3.org/2000/svg" xmlns:xlink="http://www.w3.org/1999/xlink" x="0px" y="0px"
	 viewBox="0 0 700 700" style="enable-background:new 0 0 700 700;" xml:space="preserve">
<style type="text/css">
	.st0{fill:#FF7383;}
</style>
<g>
	<path class="st0" d="M168.8,121.9c-1.6,26.4,4.9,49.4,16.5,67.5c42.8-29.6,103.8-31.3,154.8-31.3c57.6,1.6,123.5,0,168,36.2
		c14.8-19.8,23.1-44.5,19.8-72.5c-24.7-1.6-47.8,3.3-67.5,11.5c6.6-16.5,9.9-34.6,8.2-52.7c-32.9-1.6-60.9,6.6-84,21.4
		c1.6-31.3-13.2-62.6-42.8-85.6c-29.6,23.1-42.8,52.7-42.8,82.4v4.9c-19.8-16.5-47.8-24.7-80.7-23.1c-1.6,18.1,0,34.6,6.6,47.8
		C208.3,123.5,190.2,120.2,168.8,121.9L168.8,121.9z"/>
	<path class="st0" d="M488.4,215.8c-36.2-26.4-95.5-26.4-143.3-26.4c-42.8,0-100.5,0-136.7,23.1c-24.7,14.8-39.5,37.9-39.5,77.4
		c0,98.8,105.4,253.6,176.2,253.6c77.4,0,176.2-154.8,176.2-253.6C521.3,253.7,508.1,230.6,488.4,215.8L488.4,215.8z M206.7,303.1
		c-6.6,0-11.5-9.9-11.5-21.4c0-11.5,4.9-21.4,11.5-21.4c6.6,0,9.9,9.9,9.9,21.4C216.6,293.2,213.3,303.1,206.7,303.1z M247.9,368.9
		c-6.6,0-11.5-9.9-11.5-21.4c0-11.5,4.9-21.4,11.5-21.4c6.6,0,9.9,9.9,9.9,21.4S252.8,368.9,247.9,368.9L247.9,368.9z M284.1,423.3
		c-6.6,0-9.9-9.9-9.9-21.4c0-11.5,4.9-21.4,9.9-21.4c6.6,0,11.5,9.9,11.5,21.4C295.7,413.4,289.1,423.3,284.1,423.3z M290.7,258.6
		c-6.6,0-9.9-8.2-11.5-19.8v-1.6c0-11.5,4.9-21.4,11.5-21.4c1.6,0,3.3,1.6,4.9,3.3c3.3,3.3,4.9,9.9,4.9,18.1
		C302.2,248.7,297.3,258.6,290.7,258.6L290.7,258.6z M317.1,479.3c-6.6,0-11.5-9.9-11.5-21.4c0-11.5,4.9-21.4,11.5-21.4
		s9.9,9.9,9.9,21.4C328.6,469.4,323.7,479.3,317.1,479.3z M328.6,312.9c-6.6,0-9.9-9.9-9.9-21.4c0-11.5,4.9-21.4,9.9-21.4
		c6.6,0,11.5,9.9,11.5,21.4C338.5,303.1,335.2,312.9,328.6,312.9z M358.2,396.9c-6.6,0-11.5-9.9-11.5-21.4
		c0-11.5,4.9-21.4,11.5-21.4s9.9,9.9,9.9,21.4C369.8,387.1,364.8,396.9,358.2,396.9z M363.2,258.6c-6.6,0-11.5-9.9-11.5-21.4
		c0-11.5,4.9-21.4,11.5-21.4c6.6,0,11.5,9.9,11.5,21.4C374.7,248.7,368.1,258.6,363.2,258.6z M402.7,474.4
		c-6.6,0-11.5-9.9-11.5-21.4c0-11.5,4.9-21.4,11.5-21.4c6.6,0,9.9,9.9,9.9,21.4C414.2,466.1,409.3,474.4,402.7,474.4z M409.3,347.5
		c-6.6,0-11.5-9.9-11.5-21.4c0-11.5,4.9-21.4,11.5-21.4c6.6,0,9.9,9.9,9.9,21.4S414.2,347.5,409.3,347.5z M460.4,380.5
		c-6.6,0-9.9-9.9-9.9-21.4c0-11.5,4.9-21.4,9.9-21.4c6.6,0,11.5,9.9,11.5,21.4C471.9,370.6,465.3,380.5,460.4,380.5z M460.4,278.4
		c-6.6,0-9.9-9.9-9.9-21.4c0-11.5,4.9-21.4,9.9-21.4c6.6,0,11.5,9.9,11.5,21.4C470.2,268.5,465.3,278.4,460.4,278.4z"/>
</g>
</svg>
